<svg xmlns="http://www.w3.org/2000/svg" width="320" height="220" viewBox="0 0 320 220" role="img" aria-labelledby="title desc">
  <title id="title">Audifonos sobre una mesa de estudio</title>
  <desc id="desc">Ilustracion editorial de audifonos para practica de comprension oral DELF B2.</desc>
  <defs>
    <linearGradient id="bg" x1="0" x2="1" y1="0" y2="1">
      <stop stop-color="#f8fbff"/>
      <stop offset="1" stop-color="#ebe3ff"/>
    </linearGradient>
    <linearGradient id="band" x1="0" x2="1">
      <stop stop-color="#0b2f55"/>
      <stop offset="1" stop-color="#5b36d6"/>
    </linearGradient>
  </defs>
  <rect width="320" height="220" rx="18" fill="url(#bg)"/>
  <path d="M38 170c50-20 105-24 164-12 37 8 62 4 80-10" fill="none" stroke="#c7b9ff" stroke-width="3" stroke-linecap="round"/>
  <path d="M86 118a74 74 0 0 1 148 0" fill="none" stroke="url(#band)" stroke-width="18" stroke-linecap="round"/>
  <rect x="56" y="105" width="54" height="78" rx="20" fill="#ffffff" stroke="#0b2f55" stroke-width="8"/>
  <rect x="210" y="105" width="54" height="78" rx="20" fill="#ffffff" stroke="#0b2f55" stroke-width="8"/>
  <path d="M86 128v38M234 128v38" stroke="#5b36d6" stroke-width="8" stroke-linecap="round"/>
  <circle cx="255" cy="47" r="8" fill="#d89512"/>
  <path d="M48 62l13 6 13-6-6 13 6 13-13-6-13 6 6-13z" fill="#5b36d6" opacity=".9"/>
  <path d="M126 186h68" stroke="#d89512" stroke-width="6" stroke-linecap="round"/>
</svg>
