<svg xmlns="http://www.w3.org/2000/svg" width="320" height="220" viewBox="0 0 320 220" role="img" aria-labelledby="title desc">
  <title id="title">Microfono de practica oral</title>
  <desc id="desc">Ilustracion editorial de microfono para proximos contenidos DELF B2.</desc>
  <defs>
    <linearGradient id="bg" x1="0" x2="1" y1="0" y2="1">
      <stop stop-color="#fff9ee"/>
      <stop offset="1" stop-color="#edf5ff"/>
    </linearGradient>
  </defs>
  <rect width="320" height="220" rx="18" fill="url(#bg)"/>
  <rect x="126" y="42" width="68" height="108" rx="34" fill="#ffffff" stroke="#0b2f55" stroke-width="8"/>
  <path d="M137 75h46M137 98h46M137 121h46" stroke="#5b36d6" stroke-width="5" stroke-linecap="round"/>
  <path d="M96 112v11a64 64 0 0 0 128 0v-11M160 187v-37M122 187h76" fill="none" stroke="#0b2f55" stroke-width="8" stroke-linecap="round"/>
  <path d="M45 67l13 6 13-6-6 13 6 13-13-6-13 6 6-13z" fill="#d89512"/>
  <circle cx="249" cy="54" r="9" fill="#5b36d6" opacity=".9"/>
  <path d="M78 192h164" stroke="#d89512" stroke-width="6" stroke-linecap="round"/>
</svg>
